<?xml version="1.0" encoding="UTF-8"?>
<svg id="Layer_1" data-name="Layer 1" xmlns="http://www.w3.org/2000/svg" viewBox="0 0 395.5 390.43">
  <defs>
    <style>
      .cls-1 {
        fill: #f8c218;
        stroke-width: 6px;
      }

      .cls-1, .cls-2, .cls-3, .cls-4 {
        stroke: #381810;
        stroke-linecap: round;
      }

      .cls-1, .cls-3 {
        stroke-linejoin: round;
      }

      .cls-2 {
        fill: none;
        stroke-width: 6.83px;
      }

      .cls-2, .cls-4 {
        stroke-miterlimit: 10;
      }

      .cls-3 {
        fill: #ed6225;
      }

      .cls-3, .cls-4 {
        stroke-width: 5px;
      }

      .cls-5 {
        fill: #fdc010;
      }

      .cls-6 {
        fill: #231735;
      }

      .cls-7 {
        fill: #111222;
      }

      .cls-8 {
        fill: #1d112f;
      }

      .cls-9 {
        fill: #585ba8;
      }

      .cls-10 {
        fill: #4489c9;
      }

      .cls-11 {
        fill: rgba(249, 194, 19, .5);
      }

      .cls-12 {
        isolation: isolate;
        opacity: .08;
      }

      .cls-4 {
        fill: #f89a1c;
      }
    </style>
  </defs>
  <g>
    <g class="cls-12">
      <path class="cls-7" d="m314.24,375.68c0-8.15-56.28-14.76-125.71-14.76-69.42,0-125.7,6.61-125.7,14.76,0,8.15,56.27,14.76,125.7,14.76,69.43,0,125.71-6.61,125.71-14.76Z"/>
    </g>
    <path class="cls-4" d="m303.6,298.95c6.25,9.82,10.73,34.74-3.58,42.97-14.31,8.23-26.87-6.17-32.98-32.18"/>
    <path class="cls-3" d="m183.11,78.74c-26.33-28.4-65-41.9-73.67-35.66-7.04,5.06,6.86,44.19,1.21,53.51-5.66,9.32-34.61-3.81-40.71,8.28-2.9,5.74,17.2,25.51,14.72,33.87-2.48,8.36-19.94,2.04-23.66,12.76-2.5,7.2,13.56,12.41,11.02,21.08-2.55,8.68-14.05,4.49-15.39,13.13-1.09,7.02,12.86,5.27,13.79,17.68.93,12.4,112.7-124.66,112.7-124.66Z"/>
    <path class="cls-5" d="m298.46,316.68c-36.26,28.14-30.38,53.6-56.36,55.29-25.98,1.69-22.35-26.19-41.69-24.92s-22.96,25.34-51.96,24.92c-29-.42-6.95-35.1-44.97-37.46-20.75-1.29,113.84-30.12,113.84-30.12l81.13,12.29Z"/>
    <path class="cls-1" d="m340.79,144.28c-36.41-81.12-197.26-90.43-239.52-20.5-18.84,31.17-31.18,65.3-34.77,96.33-6.62,43.69,11.29,97.79-18.25,100.99-30.71,3.33-35.02-32.64-20.91-36.86,14.11-4.22,17.4,8.05,14.98,14.98-2.11,4.51,2.67,6.44,7.21,1.48,5.04-5.51,4.51-23.08-10.27-28.06-14.77-4.98-35.28.16-36.24,29.32-.82,24.67,21.37,49.3,59.44,41.56,21.13-4.29,30.27-9.03,39.61-9.2.35.08.81.14,1.41.18,2.61.16,4.92.48,7,.92,2.63.72,5.5,1.82,8.8,3.38,15.74,9.87,5.62,32.81,29.18,33.15,29,.42,32.63-23.65,51.96-24.92s15.71,26.61,41.69,24.92c22.8-1.48,21.07-21.28,44.82-45.13,24.4-18.73,96.66-87.21,53.87-182.55Z"/>
    <path class="cls-3" d="m140.47,89.92c61.04-25.95,117.24,8.85,123.97,15.76,6.74,6.91,19.23,3.16,16.36-13.8C271.2,35.05,219.27,1.76,206.3,2.51c-11.35.66-7.77,55.87-20.71,64.07-10.39,6.58-14.81-1.14-28.28-9.18"/>
    <path class="cls-4" d="m198.55,292.79c-2.75,18.65-14.76,31.28-28.65,29.35-13.89-1.93-14.32-19.17-11.82-36.39"/>
    <path class="cls-2" d="m269.06,251.8c-2.35-6.61-13.14-20.67-33.71-18.55"/>
    <g>
      <path class="cls-9" d="m184.64,171.19h0c4.53-17.36,22.28-27.76,39.63-23.23l144.44,37.71c17.35,4.53,27.75,22.28,23.22,39.63h0c-4.53,17.36-22.28,27.76-39.63,23.23l-144.44-37.71c-17.35-4.53-27.75-22.28-23.22-39.63Z"/>
      <path class="cls-6" d="m182.2,170.54c4.88-18.67,24.03-29.89,42.7-25.02l144.44,37.71c18.67,4.88,29.89,24.03,25.02,42.71-4.88,18.67-24.03,29.89-42.7,25.02l-144.44-37.71c-18.67-4.88-29.89-24.03-25.02-42.71Zm41.43-20.15c-15.99-4.17-32.39,5.44-36.56,21.43-4.17,15.99,5.44,32.39,21.42,36.56l144.44,37.71c15.99,4.17,32.39-5.44,36.56-21.43,4.17-15.99-5.44-32.39-21.42-36.56l-144.44-37.71Z"/>
    </g>
    <path class="cls-8" d="m228.51,182.65c3.01-11.51,14.78-18.41,26.29-15.4l109.61,28.62c11.52,3.01,18.41,14.78,15.4,26.29-3.01,11.52-14.78,18.41-26.29,15.4l-109.61-28.62c-11.52-3.01-18.41-14.78-15.4-26.29Z"/>
    <path class="cls-10" d="m311.75,219.72c1.71.45,3.57.3,5.21-.54l13.06-6.7c.67-.34,1.66-.08,2.08.55l.67,1c2.03,3.06,6.2,4.14,9.48,2.47l9.46-4.84c.67-.34,1.66-.08,2.07.54l7.55,11.3c.88,1.32,2.67,1.68,3.99.79,1.32-.88,1.68-2.67.79-3.99l-7.55-11.29c-2.03-3.05-6.2-4.14-9.47-2.48l-9.46,4.85c-.67.34-1.66.08-2.08-.54l-.67-1c-2.03-3.05-6.19-4.14-9.47-2.47l-13.07,6.7c-.67.34-1.66.08-2.08-.54l-13.8-20.66c-2.03-3.05-6.19-4.14-9.48-2.48l-6.71,3.43c-.67.34-1.66.08-2.08-.55-2.03-3.05-6.19-4.14-9.48-2.48l-7.87,4.04c-.67.34-1.66.08-2.07-.54l-9.18-13.73c-.89-1.32-2.67-1.67-3.99-.79-1.32.88-1.68,2.67-.79,3.99l9.17,13.72c2.04,3.06,6.2,4.15,9.48,2.47l7.86-4.03c.66-.34,1.66-.08,2.07.54,2.05,3.06,6.21,4.15,9.48,2.48l6.7-3.43c.66-.34,1.66-.08,2.08.54l13.8,20.66c1.02,1.53,2.57,2.57,4.27,3.01Z"/>
  </g>
  <path class="cls-11" d="m240.95,57.53c.17-.75.27-1.57.31-2.56.05-.99-.02-2.06-.22-3.27-.21-1.16-.56-2.47-1.14-3.75-.19-.51-.44-1.03-.75-1.52,1.32-2.21.6-4.68.6-4.68-2.25-.82-3.92-.42-4.6-.18-.07-.07-.16-.15-.24-.17-.34-.25-.7-.56-1.07-.77-.37-.26-.76-.48-1.13-.74-.39-.22-.82-.44-1.25-.68-.09-.02-.13-.04-.22-.11-.05-3.47-2.51-5.65-2.51-5.65-3.78,1.07-5.27,3.73-5.27,3.73,0,0-.02.04-.1.17-.2-.01-.4-.02-.59-.03-.26.02-.56.03-.8.01-.26.02-.56.03-.82.06-.52.09-1.11.17-1.63.26-.55.14-1.08.28-1.58.43-.03-.06-.07-.07-.07-.07-3.92-2.98-8.45-2.07-8.45-2.07-1.76,4.58-.54,8.2-.25,8.89-.17.25-.36.54-.53.79-.64.96-1.2,1.99-1.73,3.09-.05.18-.14.31-.19.49-4.71.69-7.15,4.47-7.15,4.47,2.23,4.93,6.15,6.4,6.15,6.4.23,1.07.58,2.08.98,3.1.18.4.36.81.58,1.23-2.29,3.17-1.76,6.58-1.76,6.58,3.78,1.28,6.79.22,7.42-.04.34.25.72.46,1.06.67,1.06.67,2.21,1.16,3.38,1.61.28.08.59.18.87.26l.13.04.1.03.18.06.18.06c1.03,3.11,4.05,4.36,4.05,4.36,2.96-1.67,3.75-3.99,3.9-4.49v-.05s.04-.09.04-.09l.03-.09c.56-.19,1.13-.41,1.65-.66,1.12-.57,2.23-1.24,3.16-2.01.07-.08.2-.14.27-.22,2.48.89,4.78-.27,4.78-.27.37-2.74-.76-4.48-1-4.85l-.03-.06-.05-.02s-.04-.01-.03-.06c.04-.14.14-.31.19-.44.08-.28.2-.54.3-.86l.06-.23.03-.09v-.05s.04-.09.04-.09l.06-.18.06-.23.06-.23.07-.23.06-.23.03-.24c.03-.29.08-.63.07-.93.07-1.23-.03-2.41-.34-3.56-.3-1.14-.79-2.24-1.39-3.22-.61-.98-1.36-1.81-2.19-2.56-.84-.7-1.76-1.33-2.74-1.72-.5-.2-.99-.39-1.49-.55l-.18-.06-.05-.02s-.1-.03-.05-.02l-.1-.03-.18-.06-.18-.06c-.29-.04-.52-.11-.8-.14-1.07-.12-2.1-.03-3.12.22-.98.26-1.89.64-2.7,1.2-.81.51-1.5,1.15-2.08,1.88-.57.73-1,1.5-1.28,2.32l-.18.6-.04.14-.06.18-.08.28c-.09.43-.12.87-.14,1.26,0,.85.11,1.64.41,2.33.23.72.65,1.35,1.08,1.93.44.53.96.99,1.49,1.35.54.36,1.09.57,1.63.74l.19.06.09.03.1.03.18.06.05.02.05.02.09.02c.1.03.14.04.2.01.04.01.15,0,.19.01.16,0,.24.02.39.02.26-.02.52-.04.78-.07.26-.02.48-.11.71-.19.06-.03.11-.07.16-.05.22-.08.36-.34.23-.58-.08-.22-.3-.34-.53-.26-.06.03-.11.02-.16.05-.17.05-.36.04-.56.03-.2-.01-.4-.02-.59-.03-.1-.03-.2-.01-.29-.04l-.14-.04-.13-.04-.13-.04-.19-.06h-.04s-.1-.04-.1-.04l-.13-.04c-.4-.17-.82-.44-1.18-.75-.36-.31-.69-.71-.96-1.14-.27-.43-.47-.94-.58-1.42-.09-.53-.14-1.04-.07-1.62.04-.29.1-.52.19-.8l.06-.23v-.05s.04-.04.04-.04l.03-.09c.04-.14.13-.26.16-.4.52-1.05,1.45-1.97,2.56-2.54.3-.16.59-.28.85-.35.29-.11.61-.17.92-.22.32-.06.62-.06.97-.06.3,0,.63.04.96.14l.46.14.09.02.14.04.09.03.05.02.14.04c.3.14.65.3.97.44.6.33,1.18.75,1.66,1.3,1.01,1,1.71,2.36,1.98,3.8.12.74.16,1.45.05,2.17,0,.2-.06.39-.1.52l-.04.14-.04.14-.04.14-.05.14-.03.09-.04.14-.1.32c-.05.18-.15.35-.2.54-.06.18-.16.35-.26.52-.11.17-.2.34-.31.51-.2.34-.45.67-.69.99-.48.61-1.06,1.19-1.71,1.69-1.29.97-2.78,1.62-4.41,1.84-.78.12-1.58.13-2.41.03-.39-.06-.81-.14-1.19-.2l-.1-.03-.05-.02-.13-.04-.18-.06-.1-.03-.05-.02c-.18-.06-.41-.12-.58-.22-.81-.29-1.58-.73-2.29-1.19-.72-.47-1.4-1.02-1.98-1.59-1.19-1.21-2.2-2.66-2.84-4.25-.31-.79-.56-1.62-.72-2.42-.15-.84-.2-1.66-.2-2.51,0-.85.14-1.66.29-2.47l.04-.14v-.05s.04-.04.04-.04v-.05s.05-.14.05-.14v-.05s.04-.04.04-.04l.03-.09.05-.18v-.05s.04-.09.04-.09l.09-.27c.13-.41.28-.77.45-1.17.16-.4.39-.78.54-1.14.21-.39.41-.73.63-1.11.47-.71.98-1.41,1.51-2,1.06-1.23,2.33-2.26,3.68-2.96.36-.19.7-.34,1.05-.49.34-.15.67-.25,1.06-.39.33-.1.71-.19,1.09-.28.16-.05.36-.04.52-.09.11-.02.21-.04.26-.03.11-.02.21-.04.26-.02.36-.04.77-.07,1.12-.07.11-.02.19.01.3,0,.11-.02.19.01.3,0,.19,0,.39.01.55.01.11-.02.19.01.29.04.09.02.19,0,.29.04.09.02.19,0,.29.04h.15s.14.04.14.04c.09.02.19,0,.29.04.09.02.19,0,.33.05.1.03.25.02.34.05l.18.06.14.04.05.02.09.02.33.1.13.04.05.02.05.02.27.08,1.02.3c.68.25,1.31.49,1.91.82,1.22.61,2.33,1.4,3.27,2.28.94.88,1.76,1.83,2.37,2.81.03.06.07.12.1.18.03.06.07.12.1.18.07.12.13.24.24.37.07.12.13.24.2.36.06.12.12.24.19.36.26.48.45.99.65,1.49.36.96.64,1.89.78,2.79.02.06.01.11.05.16.04.06.02.11,0,.15.01.11.03.21.05.32.02.11.04.21.06.32.02.11.04.21.06.32.03.41.07.77.07,1.12.03.56.03,1.06,0,1.5,0,.15.1.33.31.34.18.06.35-.04.42-.22.48-.61.63-1.11.75-1.68h0Z"/>
</svg>